<svg width="22" height="22" viewBox="0 0 22 22" fill="none" xmlns="http://www.w3.org/2000/svg">
<path d="M15.17 10.6562L21.4244 4.59732C22.1919 3.85381 22.1919 2.64832 21.4244 1.9042L20.0344 0.557637C19.2669 -0.185879 18.0225 -0.185879 17.2544 0.557637L11 6.61656L4.74563 0.557637C3.97813 -0.185879 2.73375 -0.185879 1.96563 0.557637L0.575625 1.9042C-0.191875 2.64771 -0.191875 3.8532 0.575625 4.59732L6.83 10.6562L0.575625 16.7152C-0.191875 17.4587 -0.191875 18.6642 0.575625 19.4083L1.96563 20.7549C2.73313 21.4984 3.97813 21.4984 4.74563 20.7549L11 14.6959L17.2544 20.7549C18.0219 21.4984 19.2669 21.4984 20.0344 20.7549L21.4244 19.4083C22.1919 18.6648 22.1919 17.4593 21.4244 16.7152L15.17 10.6562Z" fill="#FF0606"/>
</svg>
