<svg width="25" height="25" viewBox="0 0 25 25" fill="none" xmlns="http://www.w3.org/2000/svg">
<path d="M23.1079 12.329L13.0518 2.28013C12.9794 2.20758 12.8933 2.15003 12.7987 2.11075C12.704 2.07148 12.6025 2.05127 12.5 2.05127C12.3975 2.05127 12.296 2.07148 12.2013 2.11075C12.1067 2.15003 12.0206 2.20758 11.9482 2.28013L1.89209 12.329C1.59912 12.6219 1.43311 13.0199 1.43311 13.4349C1.43311 14.2967 2.13379 14.9974 2.99561 14.9974H4.05518V22.1678C4.05518 22.6 4.4043 22.9491 4.83643 22.9491H10.9375V17.4803H13.6719V22.9491H20.1636C20.5957 22.9491 20.9448 22.6 20.9448 22.1678V14.9974H22.0044C22.4194 14.9974 22.8174 14.8338 23.1104 14.5384C23.7183 13.9281 23.7183 12.9393 23.1079 12.329V12.329Z" fill="#654996"/>
</svg>
