<svg width="197" height="102" viewBox="0 0 197 102" fill="none" xmlns="http://www.w3.org/2000/svg">
<path d="M113.678 12.3225C111.364 9.99015 108.61 8.14002 105.576 6.87923C102.542 5.61845 99.288 4.97207 96.0025 4.97751C92.7163 4.97237 89.4618 5.61887 86.427 6.87962C83.3923 8.14037 80.6377 9.99034 78.3225 12.3225C68.575 22.0675 68.575 37.93 78.3225 47.6775C80.6377 50.0103 83.3927 51.8607 86.4279 53.1215C89.4632 54.3822 92.7184 55.0284 96.005 55.0225C99.2903 55.0283 102.544 54.3823 105.578 53.1219C108.612 51.8616 111.366 50.0119 113.68 47.68C123.428 37.935 123.428 22.0725 113.678 12.3225ZM96.4525 10H95.555C95.7075 9.99751 95.8525 9.97751 96.005 9.97751C96.1575 9.97751 96.3 9.99751 96.4525 10ZM111.608 42.5H106L102.855 48.79C100.661 49.6005 98.3414 50.0178 96.0025 50.0225C93.6593 50.0182 91.3353 49.6001 89.1375 48.7875L86 42.525H80.4125C78.3511 39.9622 76.9571 36.9284 76.355 33.695L81 27.5L77.96 21.4175C78.93 19.354 80.2485 17.4731 81.8575 15.8575C84.1095 13.5977 86.8698 11.9098 89.9075 10.935L96 15L102.095 10.9375C105.132 11.913 107.892 13.5998 110.145 15.8575C111.752 17.4712 113.07 19.3494 114.04 21.41L111 27.5L115.645 33.695C115.046 36.918 113.659 39.9428 111.608 42.5Z" fill="#3D228A"/>
<path d="M87.25 27.5L91 37.5H101L104.75 27.5L96 21.25L87.25 27.5Z" fill="#3D228A"/>
<path d="M12.69 94.36C11.406 94.36 10.146 94.198 8.91 93.874C7.674 93.55 6.546 93.064 5.526 92.416C4.506 91.768 3.66 90.958 2.988 89.986C2.328 89.014 1.932 87.874 1.8 86.566H7.182C7.362 87.358 7.704 88.024 8.208 88.564C8.712 89.104 9.348 89.518 10.116 89.806C10.884 90.094 11.736 90.238 12.672 90.238C13.632 90.238 14.508 90.118 15.3 89.878C16.092 89.638 16.728 89.278 17.208 88.798C17.688 88.306 17.928 87.694 17.928 86.962C17.928 86.302 17.73 85.762 17.334 85.342C16.95 84.922 16.428 84.58 15.768 84.316C15.108 84.052 14.358 83.836 13.518 83.668L9.018 82.75C7.05 82.378 5.49 81.598 4.338 80.41C3.186 79.21 2.592 77.614 2.556 75.622C2.544 73.99 2.976 72.58 3.852 71.392C4.74 70.192 5.94 69.268 7.452 68.62C8.976 67.972 10.68 67.648 12.564 67.648C14.808 67.648 16.692 68.002 18.216 68.71C19.752 69.406 20.916 70.354 21.708 71.554C22.512 72.742 22.926 74.068 22.95 75.532H17.676C17.58 74.62 17.304 73.894 16.848 73.354C16.392 72.814 15.804 72.424 15.084 72.184C14.376 71.944 13.566 71.824 12.654 71.824C11.958 71.824 11.322 71.902 10.746 72.058C10.182 72.214 9.702 72.436 9.306 72.724C8.91 73 8.604 73.33 8.388 73.714C8.172 74.098 8.064 74.53 8.064 75.01C8.064 75.766 8.316 76.378 8.82 76.846C9.324 77.314 10.266 77.698 11.646 77.998L16.11 78.916C17.706 79.228 18.972 79.69 19.908 80.302C20.856 80.914 21.564 81.604 22.032 82.372C22.512 83.14 22.824 83.926 22.968 84.73C23.124 85.522 23.202 86.254 23.202 86.926C23.202 88.33 22.758 89.596 21.87 90.724C20.994 91.84 19.77 92.728 18.198 93.388C16.626 94.036 14.79 94.36 12.69 94.36ZM38.0236 79.042H33.8836L33.9196 88.96C33.9196 89.416 33.9736 89.758 34.0816 89.986C34.2016 90.202 34.3816 90.346 34.6216 90.418C34.8736 90.478 35.1916 90.508 35.5756 90.508H38.0776V93.748C37.8376 93.856 37.4596 93.958 36.9436 94.054C36.4396 94.15 35.7316 94.198 34.8196 94.198C33.1876 94.198 31.9216 93.988 31.0216 93.568C30.1336 93.148 29.5156 92.56 29.1676 91.804C28.8196 91.048 28.6456 90.172 28.6456 89.176V79.042H25.6216V75.388H28.8256L30.1396 69.772H33.8836V75.37H38.0236V79.042ZM41.9062 94V75.388H46.9643V79.798C47.2643 78.85 47.6843 78.022 48.2243 77.314C48.7763 76.594 49.4423 76.036 50.2223 75.64C51.0023 75.232 51.8843 75.028 52.8683 75.028C53.0363 75.028 53.1923 75.04 53.3363 75.064C53.4923 75.076 53.6063 75.1 53.6783 75.136V80.14C53.5703 80.092 53.4383 80.062 53.2823 80.05C53.1383 80.038 53.0063 80.026 52.8863 80.014C51.8543 79.93 50.9723 79.96 50.2402 80.104C49.5083 80.248 48.9143 80.494 48.4583 80.842C48.0023 81.19 47.6723 81.616 47.4683 82.12C47.2643 82.624 47.1623 83.188 47.1623 83.812V94H41.9062ZM60.7809 85.9C60.7689 86.848 60.9189 87.676 61.2309 88.384C61.5429 89.08 61.9929 89.62 62.5809 90.004C63.1809 90.376 63.9009 90.562 64.7409 90.562C65.6409 90.562 66.4269 90.37 67.0989 89.986C67.7829 89.602 68.2569 88.972 68.5209 88.096H73.2549C73.0509 89.416 72.5229 90.544 71.6709 91.48C70.8309 92.416 69.8109 93.13 68.6109 93.622C67.4109 94.114 66.1629 94.36 64.8669 94.36C63.0309 94.36 61.4109 93.976 60.0069 93.208C58.6149 92.428 57.5289 91.33 56.7489 89.914C55.9689 88.498 55.5789 86.83 55.5789 84.91C55.5789 83.05 55.9329 81.376 56.6409 79.888C57.3489 78.388 58.3749 77.206 59.7189 76.342C61.0749 75.466 62.7009 75.028 64.5969 75.028C66.4929 75.028 68.0829 75.43 69.3669 76.234C70.6629 77.026 71.6349 78.136 72.2829 79.564C72.9429 80.98 73.2729 82.618 73.2729 84.478V85.9H60.7809ZM60.7629 82.768H68.3589C68.3589 82.024 68.2209 81.34 67.9449 80.716C67.6689 80.092 67.2489 79.6 66.6849 79.24C66.1329 78.88 65.4369 78.7 64.5969 78.7C63.7809 78.7 63.0849 78.898 62.5089 79.294C61.9449 79.678 61.5129 80.182 61.2129 80.806C60.9129 81.43 60.7629 82.084 60.7629 82.768ZM81.2419 85.9C81.2299 86.848 81.3799 87.676 81.6919 88.384C82.0039 89.08 82.4539 89.62 83.0419 90.004C83.6419 90.376 84.3619 90.562 85.2019 90.562C86.1019 90.562 86.8879 90.37 87.5599 89.986C88.2439 89.602 88.7179 88.972 88.9819 88.096H93.7159C93.5119 89.416 92.9839 90.544 92.1319 91.48C91.2919 92.416 90.2719 93.13 89.0719 93.622C87.8719 94.114 86.6239 94.36 85.3279 94.36C83.4919 94.36 81.8719 93.976 80.4679 93.208C79.0759 92.428 77.9899 91.33 77.2099 89.914C76.4299 88.498 76.0399 86.83 76.0399 84.91C76.0399 83.05 76.3939 81.376 77.1019 79.888C77.8099 78.388 78.8359 77.206 80.1799 76.342C81.5359 75.466 83.1619 75.028 85.0579 75.028C86.9539 75.028 88.5439 75.43 89.8279 76.234C91.1239 77.026 92.0959 78.136 92.7439 79.564C93.4039 80.98 93.7339 82.618 93.7339 84.478V85.9H81.2419ZM81.2239 82.768H88.8199C88.8199 82.024 88.6819 81.34 88.4059 80.716C88.1299 80.092 87.7099 79.6 87.1459 79.24C86.5939 78.88 85.8979 78.7 85.0579 78.7C84.2419 78.7 83.5459 78.898 82.9699 79.294C82.4059 79.678 81.9739 80.182 81.6739 80.806C81.3739 81.43 81.2239 82.084 81.2239 82.768ZM108.125 79.042H103.985L104.021 88.96C104.021 89.416 104.075 89.758 104.183 89.986C104.303 90.202 104.483 90.346 104.723 90.418C104.975 90.478 105.293 90.508 105.677 90.508H108.179V93.748C107.939 93.856 107.561 93.958 107.045 94.054C106.541 94.15 105.833 94.198 104.921 94.198C103.289 94.198 102.023 93.988 101.123 93.568C100.235 93.148 99.6172 92.56 99.2692 91.804C98.9212 91.048 98.7472 90.172 98.7472 89.176V79.042H95.7232V75.388H98.9272L100.241 69.772H103.985V75.37H108.125V79.042ZM122.034 94.36C120.81 94.36 119.622 94.21 118.47 93.91C117.318 93.598 116.274 93.136 115.338 92.524C114.402 91.912 113.622 91.156 112.998 90.256C112.386 89.344 112.002 88.288 111.846 87.088H115.338C115.554 88.072 115.98 88.9 116.616 89.572C117.264 90.244 118.05 90.748 118.974 91.084C119.91 91.42 120.924 91.588 122.016 91.588C123.24 91.588 124.332 91.42 125.292 91.084C126.264 90.736 127.026 90.244 127.578 89.608C128.142 88.972 128.424 88.21 128.424 87.322C128.424 86.542 128.244 85.864 127.884 85.288C127.536 84.712 127.026 84.232 126.354 83.848C125.682 83.464 124.866 83.164 123.906 82.948L118.794 81.76C116.874 81.34 115.368 80.59 114.276 79.51C113.196 78.43 112.644 77.002 112.62 75.226C112.62 73.726 113.016 72.406 113.808 71.266C114.612 70.126 115.71 69.238 117.102 68.602C118.506 67.966 120.108 67.648 121.908 67.648C123.984 67.648 125.73 68.002 127.146 68.71C128.562 69.418 129.63 70.348 130.35 71.5C131.07 72.652 131.436 73.882 131.448 75.19H128.01C127.902 74.014 127.554 73.084 126.966 72.4C126.39 71.704 125.664 71.212 124.788 70.924C123.912 70.624 122.958 70.474 121.926 70.474C121.182 70.474 120.462 70.57 119.766 70.762C119.082 70.942 118.464 71.218 117.912 71.59C117.372 71.962 116.94 72.424 116.616 72.976C116.292 73.528 116.13 74.17 116.13 74.902C116.13 75.838 116.448 76.6 117.084 77.188C117.732 77.776 118.902 78.28 120.594 78.7L125.544 79.888C126.84 80.164 127.896 80.572 128.712 81.112C129.54 81.652 130.176 82.264 130.62 82.948C131.076 83.632 131.388 84.346 131.556 85.09C131.736 85.834 131.826 86.566 131.826 87.286C131.826 88.594 131.436 89.788 130.656 90.868C129.876 91.936 128.754 92.788 127.29 93.424C125.838 94.048 124.086 94.36 122.034 94.36ZM136.77 94V67.252H140.01V78.124C140.322 77.608 140.742 77.128 141.27 76.684C141.798 76.228 142.44 75.862 143.196 75.586C143.952 75.298 144.828 75.154 145.824 75.154C147.036 75.154 148.134 75.382 149.118 75.838C150.102 76.282 150.882 76.918 151.458 77.746C152.034 78.574 152.322 79.558 152.322 80.698V94H148.992V81.364C148.992 80.248 148.608 79.39 147.84 78.79C147.084 78.178 146.094 77.872 144.87 77.872C144.042 77.872 143.262 78.01 142.53 78.286C141.798 78.55 141.204 78.958 140.748 79.51C140.304 80.05 140.082 80.74 140.082 81.58V94H136.77ZM164.91 94.36C163.194 94.36 161.694 93.994 160.41 93.262C159.126 92.518 158.13 91.432 157.422 90.004C156.714 88.576 156.36 86.83 156.36 84.766C156.36 82.822 156.69 81.118 157.35 79.654C158.01 78.19 158.976 77.056 160.248 76.252C161.532 75.436 163.086 75.028 164.91 75.028C166.626 75.028 168.114 75.406 169.374 76.162C170.646 76.906 171.63 78.004 172.326 79.456C173.022 80.908 173.37 82.678 173.37 84.766C173.37 86.662 173.046 88.33 172.398 89.77C171.762 91.21 170.814 92.338 169.554 93.154C168.306 93.958 166.758 94.36 164.91 94.36ZM164.91 91.732C166.026 91.732 166.968 91.45 167.736 90.886C168.504 90.322 169.086 89.512 169.482 88.456C169.878 87.4 170.076 86.146 170.076 84.694C170.076 83.362 169.902 82.168 169.554 81.112C169.206 80.044 168.648 79.198 167.88 78.574C167.124 77.95 166.134 77.638 164.91 77.638C163.782 77.638 162.828 77.92 162.048 78.484C161.268 79.036 160.674 79.84 160.266 80.896C159.87 81.952 159.672 83.218 159.672 84.694C159.672 86.002 159.852 87.19 160.212 88.258C160.572 89.326 161.136 90.172 161.904 90.796C162.672 91.42 163.674 91.732 164.91 91.732ZM177.727 99.796V75.388H181.039L181.075 78.628C181.291 78.244 181.567 77.842 181.903 77.422C182.251 77.002 182.671 76.612 183.163 76.252C183.667 75.892 184.249 75.598 184.909 75.37C185.581 75.142 186.343 75.028 187.195 75.028C188.683 75.028 189.991 75.37 191.119 76.054C192.259 76.726 193.147 77.758 193.783 79.15C194.419 80.542 194.737 82.306 194.737 84.442C194.737 86.578 194.425 88.384 193.801 89.86C193.189 91.324 192.301 92.44 191.137 93.208C189.973 93.976 188.569 94.36 186.925 94.36C186.097 94.36 185.359 94.24 184.711 94C184.075 93.772 183.517 93.472 183.037 93.1C182.569 92.716 182.173 92.308 181.849 91.876C181.537 91.444 181.279 91.03 181.075 90.634V99.796H177.727ZM186.295 91.768C187.831 91.768 189.085 91.186 190.057 90.022C191.029 88.846 191.515 87.022 191.515 84.55C191.515 82.426 191.071 80.74 190.183 79.492C189.295 78.244 187.999 77.62 186.295 77.62C184.567 77.62 183.259 78.262 182.371 79.546C181.483 80.818 181.039 82.486 181.039 84.55C181.039 85.882 181.237 87.094 181.633 88.186C182.029 89.278 182.617 90.148 183.397 90.796C184.177 91.444 185.143 91.768 186.295 91.768Z" fill="#3D228A"/>
</svg>
