<svg width="197" height="123" viewBox="0 0 197 123" fill="none" xmlns="http://www.w3.org/2000/svg">
<path d="M115.678 12.3225C113.364 9.99014 110.61 8.14 107.576 6.87922C104.542 5.61843 101.288 4.97205 98.0025 4.9775C94.7163 4.97236 91.4617 5.61886 88.427 6.87961C85.3923 8.14035 82.6377 9.99032 80.3225 12.3225C70.575 22.0675 70.575 37.93 80.3225 47.6775C82.6377 50.0103 85.3927 51.8607 88.4279 53.1214C91.4632 54.3822 94.7183 55.0284 98.005 55.0225C101.29 55.0283 104.544 54.3823 107.578 53.1219C110.612 51.8616 113.366 50.0119 115.68 47.68C125.428 37.935 125.428 22.0725 115.678 12.3225ZM98.4525 10H97.555C97.7075 9.9975 97.8525 9.9775 98.005 9.9775C98.1575 9.9775 98.3 9.9975 98.4525 10ZM113.608 42.5H108L104.855 48.79C102.661 49.6005 100.341 50.0177 98.0025 50.0225C95.6593 50.0182 93.3353 49.6001 91.1375 48.7875L88 42.525H82.4125C80.3511 39.9622 78.957 36.9284 78.355 33.695L83 27.5L79.96 21.4175C80.93 19.354 82.2485 17.4731 83.8575 15.8575C86.1095 13.5976 88.8697 11.9098 91.9075 10.935L98 15L104.095 10.9375C107.132 11.913 109.892 13.5998 112.145 15.8575C113.752 17.4712 115.07 19.3494 116.04 21.41L113 27.5L117.645 33.695C117.046 36.918 115.659 39.9428 113.608 42.5Z" fill="white"/>
<path d="M89.25 27.5L93 37.5H103L106.75 27.5L98 21.25L89.25 27.5Z" fill="white"/>
<path d="M12.69 115.36C11.406 115.36 10.146 115.198 8.91 114.874C7.674 114.55 6.546 114.064 5.526 113.416C4.506 112.768 3.66 111.958 2.988 110.986C2.328 110.014 1.932 108.874 1.8 107.566H7.182C7.362 108.358 7.704 109.024 8.208 109.564C8.712 110.104 9.348 110.518 10.116 110.806C10.884 111.094 11.736 111.238 12.672 111.238C13.632 111.238 14.508 111.118 15.3 110.878C16.092 110.638 16.728 110.278 17.208 109.798C17.688 109.306 17.928 108.694 17.928 107.962C17.928 107.302 17.73 106.762 17.334 106.342C16.95 105.922 16.428 105.58 15.768 105.316C15.108 105.052 14.358 104.836 13.518 104.668L9.018 103.75C7.05 103.378 5.49 102.598 4.338 101.41C3.186 100.21 2.592 98.614 2.556 96.622C2.544 94.99 2.976 93.58 3.852 92.392C4.74 91.192 5.94 90.268 7.452 89.62C8.976 88.972 10.68 88.648 12.564 88.648C14.808 88.648 16.692 89.002 18.216 89.71C19.752 90.406 20.916 91.354 21.708 92.554C22.512 93.742 22.926 95.068 22.95 96.532H17.676C17.58 95.62 17.304 94.894 16.848 94.354C16.392 93.814 15.804 93.424 15.084 93.184C14.376 92.944 13.566 92.824 12.654 92.824C11.958 92.824 11.322 92.902 10.746 93.058C10.182 93.214 9.702 93.436 9.306 93.724C8.91 94 8.604 94.33 8.388 94.714C8.172 95.098 8.064 95.53 8.064 96.01C8.064 96.766 8.316 97.378 8.82 97.846C9.324 98.314 10.266 98.698 11.646 98.998L16.11 99.916C17.706 100.228 18.972 100.69 19.908 101.302C20.856 101.914 21.564 102.604 22.032 103.372C22.512 104.14 22.824 104.926 22.968 105.73C23.124 106.522 23.202 107.254 23.202 107.926C23.202 109.33 22.758 110.596 21.87 111.724C20.994 112.84 19.77 113.728 18.198 114.388C16.626 115.036 14.79 115.36 12.69 115.36ZM38.0236 100.042H33.8836L33.9196 109.96C33.9196 110.416 33.9736 110.758 34.0816 110.986C34.2016 111.202 34.3816 111.346 34.6216 111.418C34.8736 111.478 35.1916 111.508 35.5756 111.508H38.0776V114.748C37.8376 114.856 37.4596 114.958 36.9436 115.054C36.4396 115.15 35.7316 115.198 34.8196 115.198C33.1876 115.198 31.9216 114.988 31.0216 114.568C30.1336 114.148 29.5156 113.56 29.1676 112.804C28.8196 112.048 28.6456 111.172 28.6456 110.176V100.042H25.6216V96.388H28.8256L30.1396 90.772H33.8836V96.37H38.0236V100.042ZM41.9062 115V96.388H46.9643V100.798C47.2643 99.85 47.6843 99.022 48.2243 98.314C48.7763 97.594 49.4423 97.036 50.2223 96.64C51.0023 96.232 51.8843 96.028 52.8683 96.028C53.0363 96.028 53.1923 96.04 53.3363 96.064C53.4923 96.076 53.6063 96.1 53.6783 96.136V101.14C53.5703 101.092 53.4383 101.062 53.2823 101.05C53.1383 101.038 53.0063 101.026 52.8863 101.014C51.8543 100.93 50.9723 100.96 50.2402 101.104C49.5083 101.248 48.9143 101.494 48.4583 101.842C48.0023 102.19 47.6723 102.616 47.4683 103.12C47.2643 103.624 47.1623 104.188 47.1623 104.812V115H41.9062ZM60.7809 106.9C60.7689 107.848 60.9189 108.676 61.2309 109.384C61.5429 110.08 61.9929 110.62 62.5809 111.004C63.1809 111.376 63.9009 111.562 64.7409 111.562C65.6409 111.562 66.4269 111.37 67.0989 110.986C67.7829 110.602 68.2569 109.972 68.5209 109.096H73.2549C73.0509 110.416 72.5229 111.544 71.6709 112.48C70.8309 113.416 69.8109 114.13 68.6109 114.622C67.4109 115.114 66.1629 115.36 64.8669 115.36C63.0309 115.36 61.4109 114.976 60.0069 114.208C58.6149 113.428 57.5289 112.33 56.7489 110.914C55.9689 109.498 55.5789 107.83 55.5789 105.91C55.5789 104.05 55.9329 102.376 56.6409 100.888C57.3489 99.388 58.3749 98.206 59.7189 97.342C61.0749 96.466 62.7009 96.028 64.5969 96.028C66.4929 96.028 68.0829 96.43 69.3669 97.234C70.6629 98.026 71.6349 99.136 72.2829 100.564C72.9429 101.98 73.2729 103.618 73.2729 105.478V106.9H60.7809ZM60.7629 103.768H68.3589C68.3589 103.024 68.2209 102.34 67.9449 101.716C67.6689 101.092 67.2489 100.6 66.6849 100.24C66.1329 99.88 65.4369 99.7 64.5969 99.7C63.7809 99.7 63.0849 99.898 62.5089 100.294C61.9449 100.678 61.5129 101.182 61.2129 101.806C60.9129 102.43 60.7629 103.084 60.7629 103.768ZM81.2419 106.9C81.2299 107.848 81.3799 108.676 81.6919 109.384C82.0039 110.08 82.4539 110.62 83.0419 111.004C83.6419 111.376 84.3619 111.562 85.2019 111.562C86.1019 111.562 86.8879 111.37 87.5599 110.986C88.2439 110.602 88.7179 109.972 88.9819 109.096H93.7159C93.5119 110.416 92.9839 111.544 92.1319 112.48C91.2919 113.416 90.2719 114.13 89.0719 114.622C87.8719 115.114 86.6239 115.36 85.3279 115.36C83.4919 115.36 81.8719 114.976 80.4679 114.208C79.0759 113.428 77.9899 112.33 77.2099 110.914C76.4299 109.498 76.0399 107.83 76.0399 105.91C76.0399 104.05 76.3939 102.376 77.1019 100.888C77.8099 99.388 78.8359 98.206 80.1799 97.342C81.5359 96.466 83.1619 96.028 85.0579 96.028C86.9539 96.028 88.5439 96.43 89.8279 97.234C91.1239 98.026 92.0959 99.136 92.7439 100.564C93.4039 101.98 93.7339 103.618 93.7339 105.478V106.9H81.2419ZM81.2239 103.768H88.8199C88.8199 103.024 88.6819 102.34 88.4059 101.716C88.1299 101.092 87.7099 100.6 87.1459 100.24C86.5939 99.88 85.8979 99.7 85.0579 99.7C84.2419 99.7 83.5459 99.898 82.9699 100.294C82.4059 100.678 81.9739 101.182 81.6739 101.806C81.3739 102.43 81.2239 103.084 81.2239 103.768ZM108.125 100.042H103.985L104.021 109.96C104.021 110.416 104.075 110.758 104.183 110.986C104.303 111.202 104.483 111.346 104.723 111.418C104.975 111.478 105.293 111.508 105.677 111.508H108.179V114.748C107.939 114.856 107.561 114.958 107.045 115.054C106.541 115.15 105.833 115.198 104.921 115.198C103.289 115.198 102.023 114.988 101.123 114.568C100.235 114.148 99.6172 113.56 99.2692 112.804C98.9212 112.048 98.7472 111.172 98.7472 110.176V100.042H95.7232V96.388H98.9272L100.241 90.772H103.985V96.37H108.125V100.042ZM122.034 115.36C120.81 115.36 119.622 115.21 118.47 114.91C117.318 114.598 116.274 114.136 115.338 113.524C114.402 112.912 113.622 112.156 112.998 111.256C112.386 110.344 112.002 109.288 111.846 108.088H115.338C115.554 109.072 115.98 109.9 116.616 110.572C117.264 111.244 118.05 111.748 118.974 112.084C119.91 112.42 120.924 112.588 122.016 112.588C123.24 112.588 124.332 112.42 125.292 112.084C126.264 111.736 127.026 111.244 127.578 110.608C128.142 109.972 128.424 109.21 128.424 108.322C128.424 107.542 128.244 106.864 127.884 106.288C127.536 105.712 127.026 105.232 126.354 104.848C125.682 104.464 124.866 104.164 123.906 103.948L118.794 102.76C116.874 102.34 115.368 101.59 114.276 100.51C113.196 99.43 112.644 98.002 112.62 96.226C112.62 94.726 113.016 93.406 113.808 92.266C114.612 91.126 115.71 90.238 117.102 89.602C118.506 88.966 120.108 88.648 121.908 88.648C123.984 88.648 125.73 89.002 127.146 89.71C128.562 90.418 129.63 91.348 130.35 92.5C131.07 93.652 131.436 94.882 131.448 96.19H128.01C127.902 95.014 127.554 94.084 126.966 93.4C126.39 92.704 125.664 92.212 124.788 91.924C123.912 91.624 122.958 91.474 121.926 91.474C121.182 91.474 120.462 91.57 119.766 91.762C119.082 91.942 118.464 92.218 117.912 92.59C117.372 92.962 116.94 93.424 116.616 93.976C116.292 94.528 116.13 95.17 116.13 95.902C116.13 96.838 116.448 97.6 117.084 98.188C117.732 98.776 118.902 99.28 120.594 99.7L125.544 100.888C126.84 101.164 127.896 101.572 128.712 102.112C129.54 102.652 130.176 103.264 130.62 103.948C131.076 104.632 131.388 105.346 131.556 106.09C131.736 106.834 131.826 107.566 131.826 108.286C131.826 109.594 131.436 110.788 130.656 111.868C129.876 112.936 128.754 113.788 127.29 114.424C125.838 115.048 124.086 115.36 122.034 115.36ZM136.77 115V88.252H140.01V99.124C140.322 98.608 140.742 98.128 141.27 97.684C141.798 97.228 142.44 96.862 143.196 96.586C143.952 96.298 144.828 96.154 145.824 96.154C147.036 96.154 148.134 96.382 149.118 96.838C150.102 97.282 150.882 97.918 151.458 98.746C152.034 99.574 152.322 100.558 152.322 101.698V115H148.992V102.364C148.992 101.248 148.608 100.39 147.84 99.79C147.084 99.178 146.094 98.872 144.87 98.872C144.042 98.872 143.262 99.01 142.53 99.286C141.798 99.55 141.204 99.958 140.748 100.51C140.304 101.05 140.082 101.74 140.082 102.58V115H136.77ZM164.91 115.36C163.194 115.36 161.694 114.994 160.41 114.262C159.126 113.518 158.13 112.432 157.422 111.004C156.714 109.576 156.36 107.83 156.36 105.766C156.36 103.822 156.69 102.118 157.35 100.654C158.01 99.19 158.976 98.056 160.248 97.252C161.532 96.436 163.086 96.028 164.91 96.028C166.626 96.028 168.114 96.406 169.374 97.162C170.646 97.906 171.63 99.004 172.326 100.456C173.022 101.908 173.37 103.678 173.37 105.766C173.37 107.662 173.046 109.33 172.398 110.77C171.762 112.21 170.814 113.338 169.554 114.154C168.306 114.958 166.758 115.36 164.91 115.36ZM164.91 112.732C166.026 112.732 166.968 112.45 167.736 111.886C168.504 111.322 169.086 110.512 169.482 109.456C169.878 108.4 170.076 107.146 170.076 105.694C170.076 104.362 169.902 103.168 169.554 102.112C169.206 101.044 168.648 100.198 167.88 99.574C167.124 98.95 166.134 98.638 164.91 98.638C163.782 98.638 162.828 98.92 162.048 99.484C161.268 100.036 160.674 100.84 160.266 101.896C159.87 102.952 159.672 104.218 159.672 105.694C159.672 107.002 159.852 108.19 160.212 109.258C160.572 110.326 161.136 111.172 161.904 111.796C162.672 112.42 163.674 112.732 164.91 112.732ZM177.727 120.796V96.388H181.039L181.075 99.628C181.291 99.244 181.567 98.842 181.903 98.422C182.251 98.002 182.671 97.612 183.163 97.252C183.667 96.892 184.249 96.598 184.909 96.37C185.581 96.142 186.343 96.028 187.195 96.028C188.683 96.028 189.991 96.37 191.119 97.054C192.259 97.726 193.147 98.758 193.783 100.15C194.419 101.542 194.737 103.306 194.737 105.442C194.737 107.578 194.425 109.384 193.801 110.86C193.189 112.324 192.301 113.44 191.137 114.208C189.973 114.976 188.569 115.36 186.925 115.36C186.097 115.36 185.359 115.24 184.711 115C184.075 114.772 183.517 114.472 183.037 114.1C182.569 113.716 182.173 113.308 181.849 112.876C181.537 112.444 181.279 112.03 181.075 111.634V120.796H177.727ZM186.295 112.768C187.831 112.768 189.085 112.186 190.057 111.022C191.029 109.846 191.515 108.022 191.515 105.55C191.515 103.426 191.071 101.74 190.183 100.492C189.295 99.244 187.999 98.62 186.295 98.62C184.567 98.62 183.259 99.262 182.371 100.546C181.483 101.818 181.039 103.486 181.039 105.55C181.039 106.882 181.237 108.094 181.633 109.186C182.029 110.278 182.617 111.148 183.397 111.796C184.177 112.444 185.143 112.768 186.295 112.768Z" fill="white"/>
</svg>
