<svg width="195" height="159" viewBox="0 0 195 159" fill="none" xmlns="http://www.w3.org/2000/svg">
<g clip-path="url(#clip0_214_50)">
<path d="M186.362 158.789L186.102 158.699C186.045 158.679 180.366 156.673 177.706 152.124C175.046 147.574 176.348 142.097 176.362 142.042L176.423 141.792L176.683 141.882C176.74 141.902 182.419 143.908 185.079 148.458C187.739 153.007 186.437 158.484 186.423 158.539L186.362 158.789ZM178.132 151.912C180.381 155.758 184.869 157.73 186.006 158.18C186.222 157.056 186.9 152.512 184.653 148.669C182.406 144.827 177.917 142.852 176.779 142.401C176.563 143.526 175.885 148.069 178.132 151.912Z" fill="#3F3D56"/>
<path d="M179.739 150.528C184.52 153.18 186.361 158.448 186.361 158.448C186.361 158.448 180.451 159.416 175.67 156.764C170.89 154.112 169.048 148.843 169.048 148.843C169.048 148.843 174.958 147.876 179.739 150.528Z" fill="#3D228A"/>
<path d="M102.772 85.2129C103.004 84.8825 103.309 84.6009 103.667 84.3867C104.025 84.1725 104.428 84.0304 104.849 83.9698C105.271 83.9092 105.702 83.9314 106.113 84.035C106.525 84.1387 106.908 84.3213 107.238 84.5711C107.342 84.6505 107.44 84.7366 107.531 84.8288L119.437 83.2305L120.099 74.9749C120.15 74.3416 120.472 73.7528 120.993 73.338C121.515 72.9232 122.194 72.7165 122.881 72.7633C123.567 72.8101 124.206 73.1065 124.656 73.5874C125.105 74.0684 125.33 74.6944 125.279 75.3277C125.278 75.3424 125.276 75.3571 125.275 75.3717L124.114 86.9558L124.109 86.9816C123.958 87.4269 123.655 87.8154 123.246 88.0895C122.836 88.3636 122.342 88.5087 121.836 88.5032L107.832 88.2802C107.778 88.3567 107.719 88.4306 107.656 88.5015C107.385 88.8056 107.048 89.0534 106.666 89.2288C106.284 89.4042 105.866 89.5032 105.44 89.5193C105.013 89.5354 104.588 89.4682 104.192 89.3222C103.795 89.1761 103.437 88.9545 103.14 88.6719C103.08 88.615 103.023 88.5562 102.969 88.4954C102.565 88.0371 102.329 87.473 102.293 86.8835C102.258 86.2941 102.426 85.7094 102.772 85.2129Z" fill="#FFB7B7"/>
<path d="M126.776 155.602L123.38 155.601L121.764 143.524L126.776 143.524L126.776 155.602Z" fill="#FFB7B7"/>
<path d="M127.642 158.637L116.692 158.636V158.509C116.692 157.466 117.141 156.467 117.941 155.73C118.74 154.993 119.824 154.579 120.954 154.579H120.954L127.642 154.579L127.642 158.637Z" fill="#2F2E41"/>
<path d="M150.504 152.763L147.29 153.773L141.532 142.824L146.276 141.332L150.504 152.763Z" fill="#FFB7B7"/>
<path d="M152.386 155.378L142.023 158.637L141.978 158.516C141.614 157.529 141.689 156.45 142.187 155.514C142.685 154.579 143.566 153.864 144.636 153.528L144.636 153.528L150.966 151.537L152.386 155.378Z" fill="#2F2E41"/>
<path d="M130.515 50.0006C130.515 50.0006 127.135 48.9713 124.962 53.0883C122.79 57.2054 119.41 61.7341 119.41 61.7341L121.341 62.1458C121.341 62.1458 121.824 59.2639 123.031 58.8522L122.548 62.5575C122.548 62.5575 137.033 66.8804 143.551 62.1458L143.31 60.7048C143.31 60.7048 144.276 60.9107 144.276 62.1458L145 61.5282C145 61.5282 144.276 60.2931 142.103 58.6463C140.677 57.5654 140.187 55.509 140.018 54.2234C139.885 53.1349 139.379 52.1139 138.573 51.3086C137.129 49.8817 134.498 48.3652 130.515 50.0006Z" fill="#2F2E41"/>
<path d="M131.761 64.3848C135.17 64.3848 137.934 61.8363 137.934 58.6926C137.934 55.5488 135.17 53.0003 131.761 53.0003C128.351 53.0003 125.588 55.5488 125.588 58.6926C125.588 61.8363 128.351 64.3848 131.761 64.3848Z" fill="#FFB7B7"/>
<path d="M123.53 69.072L122.408 68.727C122.408 68.727 120.163 69.5894 120.163 71.1419C120.163 72.6943 119.789 78.904 119.789 78.904L124.839 79.4215L123.53 69.072Z" fill="#CBCBCB"/>
<path d="M143.618 103.001C143.153 102.52 142.89 101.901 142.878 101.256C142.865 100.611 143.105 99.9841 143.552 99.4884L140.401 75.1565C140.37 74.5827 140.587 74.0211 141.005 73.5948C141.423 73.1686 142.007 72.9126 142.629 72.8831C143.251 72.8535 143.861 73.0528 144.324 73.4371C144.787 73.8215 145.065 74.3596 145.099 74.9333C145.099 74.9412 145.099 74.9492 145.1 74.9571L147.919 99.3148C148.021 99.4094 148.115 99.5111 148.2 99.619C148.426 99.9073 148.589 100.234 148.678 100.58C148.767 100.926 148.782 101.285 148.72 101.636C148.659 101.988 148.524 102.324 148.321 102.627C148.119 102.93 147.854 103.193 147.541 103.402C147.509 103.423 147.476 103.444 147.443 103.465C147.081 103.686 146.67 103.83 146.24 103.887C145.811 103.944 145.373 103.913 144.958 103.796C144.44 103.651 143.976 103.376 143.618 103.001Z" fill="#FFB7B7"/>
<path d="M140.733 78.904L145.783 78.3865C145.783 78.3865 145.409 72.1768 145.409 70.6244C145.409 69.072 143.164 68.2095 143.164 68.2095L142.042 68.5545L140.733 78.904Z" fill="#CBCBCB"/>
<path d="M124.278 87.5197C124.278 87.5197 119.976 94.7732 119.976 103.57C119.976 112.367 119.602 152.73 119.602 152.73C119.602 152.73 125.214 155.145 128.581 152.213L131.574 107.538L143.358 151.35C143.358 151.35 148.97 152.385 151.589 150.66L146.539 120.129C146.539 120.129 144.481 91.4958 138.869 89.426C133.257 87.3561 124.278 87.5197 124.278 87.5197Z" fill="#2F2E41"/>
<path d="M125.09 58.7287C127.275 57.2703 129.044 55.5906 130.215 53.5925C130.215 53.5925 134.225 57.7014 136.676 57.9069C139.127 58.1123 136.899 52.9761 136.899 52.9761L132.443 51.9489L128.209 52.3598L124.867 54.4143L125.09 58.7287Z" fill="#2F2E41"/>
<path d="M137.934 67.1746C137.934 67.1746 138.112 67.0864 127.459 67.4442L123 68.5765L122.408 68.727C122.408 68.727 122.969 79.0765 124.465 80.9739C125.962 82.8713 125.588 83.9062 125.214 84.0787C124.839 84.2512 123.904 83.9062 124.465 84.7687C125.026 85.6311 125.775 85.1137 125.026 85.6311C124.278 86.1486 123.904 88.046 123.904 88.046L140.365 90.1159C140.365 90.1159 140.927 83.3888 142.423 79.9389C143.92 76.4891 144.294 75.1092 144.294 75.1092L143.171 68.2095L137.934 67.1746Z" fill="#CBCBCB"/>
<path d="M106.637 37.7523H105.691V13.8399C105.691 10.1693 104.109 6.64909 101.295 4.05361C98.4799 1.45813 94.6623 5.9168e-06 90.6817 0L35.7406 0C31.76 -1.00584e-05 27.9424 1.4581 25.1277 4.05357C22.313 6.64904 20.7317 10.1693 20.7317 13.8398V145.025C20.7317 148.696 22.313 152.216 25.1277 154.812C27.9424 157.407 31.76 158.865 35.7406 158.865H90.6816C92.6526 158.865 94.6043 158.507 96.4253 157.812C98.2462 157.116 99.9008 156.097 101.295 154.812C102.688 153.526 103.794 152.001 104.548 150.322C105.302 148.643 105.691 146.843 105.691 145.025V54.7736H106.637L106.637 37.7523Z" fill="#3F3D56"/>
<path d="M102.496 13.9371V144.93C102.498 146.286 102.209 147.629 101.648 148.882C101.086 150.136 100.262 151.275 99.2233 152.234C98.1843 153.194 96.9505 153.956 95.5922 154.476C94.234 154.996 92.778 155.264 91.3074 155.265H36.0825C33.1118 155.267 30.262 154.181 28.1599 152.245C26.0579 150.31 24.8758 147.684 24.8737 144.944V13.9371C24.8726 12.5807 25.1613 11.2375 25.7233 9.984C26.2852 8.73052 27.1094 7.59137 28.1488 6.6316C29.1881 5.67183 30.4223 4.91023 31.7809 4.39029C33.1395 3.87035 34.5958 3.60225 36.0667 3.60129H42.7793C42.4495 4.34687 42.3236 5.15579 42.4128 5.9568C42.5019 6.75781 42.8033 7.5263 43.2904 8.19458C43.7776 8.86285 44.4355 9.4104 45.2062 9.78896C45.9769 10.1675 46.8367 10.3655 47.71 10.3654H79.1858C80.059 10.3655 80.9188 10.1675 81.6895 9.78896C82.4602 9.4104 83.1181 8.86285 83.6053 8.19458C84.0924 7.5263 84.3938 6.75781 84.483 5.9568C84.5721 5.15579 84.4462 4.34687 84.1164 3.60129H91.2874C94.2575 3.59884 97.107 4.68445 99.2091 6.61932C101.311 8.55418 102.494 11.1798 102.496 13.9186V13.9371L102.496 13.9371Z" fill="white"/>
<path d="M102.496 33.3171V28.8552H95.1728V4.23933C93.929 3.81575 92.6133 3.59969 91.2873 3.60127H90.3341V28.8552H64.9309V10.3654H60.0922V28.8552H38.8018V3.60129H36.0825C35.3713 3.60026 34.6615 3.66227 33.9631 3.78645V28.8552H24.8737V33.3171H33.9631V43.6374L24.8738 48.4762V53.6296L33.9631 48.7908V79.497H24.8737V83.9588H33.9631V128.354H24.8737V132.816H33.9631V155.08C34.6615 155.204 35.3713 155.266 36.0825 155.265H38.8018V132.816H60.0922V155.265H64.9309V132.816H90.3341V155.265H91.2873C92.6133 155.267 93.929 155.051 95.1728 154.627V132.816H102.496V128.354H95.1728V108.945H102.431V104.483H95.1728V83.9588H102.496V79.497H95.1728V52.2798H102.496V47.818H95.1728V33.3171L102.496 33.3171ZM53.3496 33.3171L53.3495 33.3171L38.802 41.0629L38.8018 41.0629V33.3171H53.3496ZM38.8018 46.2141L38.802 46.214L60.0922 34.8788V79.497H38.8018V46.2141ZM38.8018 128.354V83.9588H60.0922V128.354H38.8018ZM90.3341 128.354H64.9309V108.945H90.3341V128.354ZM90.3341 104.483H64.9309V83.9588H90.3341V104.483ZM90.3341 79.497H64.9309V52.2798H90.3341V79.497ZM90.3341 47.818H64.9309V33.3171H90.3341V47.818Z" fill="#E5E5E5"/>
<path d="M106.544 47.9005C106.544 62.0697 78.7211 93.6342 78.7211 93.6342C78.7211 93.6342 50.8986 62.0697 50.8986 47.9005C50.8986 41.0963 53.8299 34.5707 59.0476 29.7593C64.2654 24.948 71.3421 22.245 78.7211 22.245C86.1001 22.245 93.1769 24.948 98.3947 29.7593C103.612 34.5707 106.544 41.0963 106.544 47.9005Z" fill="#3D228A"/>
<path d="M95.1731 46.7851C95.1731 49.7855 94.2083 52.7185 92.4005 55.2132C90.5928 57.7079 88.0234 59.6523 85.0173 60.8005C82.0111 61.9487 78.7033 62.2491 75.512 61.6638C72.3207 61.0785 69.3893 59.6336 67.0885 57.512C64.7877 55.3904 63.2208 52.6874 62.586 49.7446C61.9512 46.8019 62.277 43.7517 63.5222 40.9797C64.7674 38.2077 66.876 35.8384 69.5815 34.1715C72.2869 32.5046 75.4677 31.6149 78.7215 31.6149C80.881 31.614 83.0195 32.0053 85.015 32.7664C87.0104 33.5276 88.8238 34.6438 90.3514 36.0512C91.8791 37.4585 93.0912 39.1296 93.9185 40.969C94.7458 42.8083 95.1721 44.7799 95.1731 46.7712V46.7851Z" fill="white"/>
<path d="M78.6642 52.7735C82.0492 52.7735 84.7932 50.2432 84.7932 47.1219C84.7932 44.0006 82.0492 41.4702 78.6642 41.4702C75.2792 41.4702 72.5352 44.0006 72.5352 47.1219C72.5352 50.2432 75.2792 52.7735 78.6642 52.7735Z" fill="#3D228A"/>
<path d="M87.5593 60.03C84.9172 61.5792 81.8509 62.4018 78.7198 62.4014C75.5888 62.401 72.5228 61.5776 69.8811 60.0277C70.4305 58.2569 71.5904 56.6992 73.1854 55.5903C74.7804 54.4815 76.7236 53.8818 78.7211 53.8821C80.7186 53.8823 82.6617 54.4825 84.2563 55.5917C85.851 56.701 87.0104 58.259 87.5593 60.03Z" fill="#3D228A"/>
<path d="M78.7212 112.151C82.8633 112.151 86.2212 109.054 86.2212 105.235C86.2212 101.415 82.8633 98.3192 78.7212 98.3192C74.5791 98.3192 71.2212 101.415 71.2212 105.235C71.2212 109.054 74.5791 112.151 78.7212 112.151Z" fill="#3D228A"/>
<path d="M194.758 159H0.241935C0.17777 159 0.116233 158.976 0.0708613 158.935C0.0254896 158.893 0 158.836 0 158.777C0 158.718 0.0254896 158.661 0.0708613 158.619C0.116233 158.577 0.17777 158.554 0.241935 158.554H194.758C194.822 158.554 194.884 158.577 194.929 158.619C194.975 158.661 195 158.718 195 158.777C195 158.836 194.975 158.893 194.929 158.935C194.884 158.976 194.822 159 194.758 159Z" fill="#CBCBCB"/>
</g>
<defs>
<clipPath id="clip0_214_50">
<rect width="195" height="159" fill="white"/>
</clipPath>
</defs>
</svg>
