<svg width="297" height="182" viewBox="0 0 297 182" fill="none" xmlns="http://www.w3.org/2000/svg">
<g clip-path="url(#clip0_214_2)">
<path d="M268.318 148.036H42.4972C39.6104 148.032 36.8427 146.636 34.8014 144.154C32.7601 141.673 31.6118 138.309 31.6086 134.799V30.6368C31.6119 27.1276 32.7601 23.7632 34.8014 21.2818C36.8427 18.8004 39.6104 17.4046 42.4972 17.4006H268.318C271.205 17.4046 273.973 18.8004 276.014 21.2818C278.055 23.7632 279.203 27.1276 279.207 30.6368V134.799C279.203 138.309 278.055 141.673 276.014 144.154C273.973 146.636 271.205 148.032 268.318 148.036Z" fill="white"/>
<path d="M268.318 148.036H42.4972C39.6104 148.032 36.8427 146.636 34.8014 144.154C32.7601 141.673 31.6118 138.309 31.6086 134.799V30.6368C31.6119 27.1276 32.7601 23.7632 34.8014 21.2818C36.8427 18.8004 39.6104 17.4046 42.4972 17.4006H268.318C271.205 17.4046 273.973 18.8004 276.014 21.2818C278.055 23.7632 279.203 27.1276 279.207 30.6368V134.799C279.203 138.309 278.055 141.673 276.014 144.154C273.973 146.636 271.205 148.032 268.318 148.036ZM42.4972 18.5516C39.8605 18.5516 37.3317 19.8249 35.4673 22.0913C33.6029 24.3577 32.5554 27.4316 32.5554 30.6368V134.799C32.5554 136.387 32.8126 137.958 33.3122 139.424C33.8118 140.891 34.5441 142.223 35.4673 143.345C36.3905 144.467 37.4865 145.357 38.6927 145.965C39.8988 146.572 41.1916 146.885 42.4972 146.885H268.318C269.624 146.885 270.916 146.572 272.123 145.965C273.329 145.357 274.425 144.467 275.348 143.345C276.271 142.223 277.003 140.891 277.503 139.424C278.003 137.958 278.26 136.387 278.26 134.799V95.5245C278.26 75.1101 271.588 55.5317 259.713 41.0965C247.838 26.6612 231.732 18.5516 214.939 18.5516H42.4972Z" fill="#E6E6E6"/>
<path d="M24.6292 170.21C24.7216 169.439 24.0568 168.682 23.1443 168.521C22.2319 168.36 21.4173 168.854 21.325 169.626C21.2326 170.397 21.8975 171.154 22.8099 171.315C23.7223 171.477 24.5369 170.982 24.6292 170.21Z" fill="white"/>
<path d="M35.4929 168.922C35.5852 168.15 34.9204 167.394 34.008 167.232C33.0955 167.071 32.281 167.566 32.1886 168.337C32.0963 169.109 32.7611 169.865 33.6735 170.027C34.586 170.188 35.4005 169.693 35.4929 168.922Z" fill="#3F3D56"/>
<path d="M21.6545 159.519C21.7469 158.748 21.082 157.991 20.1696 157.83C19.2572 157.669 18.4426 158.163 18.3503 158.935C18.2579 159.706 18.9227 160.463 19.8352 160.624C20.7476 160.785 21.5622 160.291 21.6545 159.519Z" fill="#FF6584"/>
<path d="M16.934 155.14C16.9384 154.432 16.6133 153.854 16.2079 153.851C15.8026 153.847 15.4704 154.418 15.466 155.126C15.4616 155.835 15.7866 156.412 16.192 156.416C16.5974 156.42 16.9295 155.848 16.934 155.14Z" fill="#E6E6E6"/>
<path d="M15.3332 146.983C15.3376 146.275 15.0125 145.698 14.6072 145.694C14.2018 145.69 13.8696 146.261 13.8652 146.97C13.8608 147.678 14.1859 148.255 14.5912 148.259C14.9966 148.263 15.3288 147.692 15.3332 146.983Z" fill="#3F3D56"/>
<path d="M27.7817 161.339C27.7861 160.63 27.461 160.053 27.0557 160.049C26.6503 160.046 26.3181 160.617 26.3137 161.325C26.3093 162.033 26.6343 162.611 27.0397 162.614C27.4451 162.618 27.7773 162.047 27.7817 161.339Z" fill="#E6E6E6"/>
<path d="M22.5319 164.525C22.5363 163.816 22.2113 163.239 21.8059 163.235C21.4005 163.232 21.0684 163.803 21.0639 164.511C21.0595 165.22 21.3846 165.797 21.79 165.801C22.1953 165.804 22.5275 165.233 22.5319 164.525Z" fill="#FF6584"/>
<path d="M29.8397 170.414C29.8441 169.705 29.5191 169.128 29.1137 169.124C28.7083 169.121 28.3762 169.692 28.3717 170.4C28.3673 171.109 28.6924 171.686 29.0978 171.69C29.5031 171.693 29.8353 171.122 29.8397 170.414Z" fill="#3F3D56"/>
<path d="M287.082 3.86836C287.283 2.90493 286.522 1.83942 285.383 1.48845C284.244 1.13748 283.157 1.63395 282.956 2.59738C282.756 3.5608 283.516 4.62635 284.656 4.97732C285.795 5.32829 286.881 4.83179 287.082 3.86836Z" fill="white"/>
<path d="M273.169 3.75938C273.37 2.79595 272.609 1.73041 271.47 1.37944C270.331 1.02847 269.244 1.52497 269.043 2.4884C268.843 3.45182 269.603 4.51734 270.743 4.86831C271.882 5.21928 272.968 4.72281 273.169 3.75938Z" fill="#3F3D56"/>
<path d="M289.693 17.9001C289.894 16.9366 289.133 15.8711 287.994 15.5202C286.855 15.1692 285.768 15.6657 285.567 16.6291C285.366 17.5925 286.127 18.6581 287.267 19.009C288.406 19.36 289.492 18.8635 289.693 17.9001Z" fill="#FF6584"/>
<path d="M292.936 23.191C293.019 22.2937 292.669 21.5097 292.156 21.4399C291.642 21.3702 291.159 22.0411 291.077 22.9385C290.994 23.8358 291.344 24.6198 291.857 24.6896C292.371 24.7593 292.854 24.0884 292.936 23.191Z" fill="#E6E6E6"/>
<path d="M294.082 33.7874C294.165 32.89 293.815 32.106 293.302 32.0363C292.788 31.9665 292.305 32.6374 292.223 33.5348C292.14 34.4322 292.49 35.2162 293.003 35.2859C293.517 35.3557 294 34.6848 294.082 33.7874Z" fill="#3F3D56"/>
<path d="M279.856 13.5921C279.939 12.6948 279.589 11.9108 279.076 11.841C278.562 11.7713 278.079 12.4422 277.997 13.3395C277.914 14.2369 278.263 15.0209 278.777 15.0907C279.291 15.1604 279.774 14.4895 279.856 13.5921Z" fill="#E6E6E6"/>
<path d="M286.858 10.3947C286.94 9.49731 286.591 8.71331 286.077 8.64356C285.564 8.5738 285.081 9.24471 284.998 10.1421C284.916 11.0394 285.265 11.8234 285.779 11.8932C286.292 11.9629 286.775 11.292 286.858 10.3947Z" fill="#FF6584"/>
<path d="M278.232 1.75608C278.315 0.858723 277.965 0.0747282 277.452 0.00497594C276.938 -0.0647764 276.455 0.606129 276.372 1.50349C276.29 2.40085 276.639 3.18484 277.153 3.25459C277.667 3.32435 278.15 2.65344 278.232 1.75608Z" fill="#3F3D56"/>
<path d="M121.933 80.5984C121.945 91.0226 118.777 101.082 113.042 108.832V108.837C112.231 109.933 111.374 110.978 110.476 111.968C109.556 112.98 108.592 113.931 107.588 114.817C106.887 115.438 106.168 116.025 105.429 116.578C104.553 117.239 103.652 117.851 102.726 118.413C102.039 118.834 101.339 119.225 100.624 119.587C96.3568 121.767 91.7743 122.889 87.1457 122.885C84.5316 122.888 81.9255 122.533 79.3769 121.826C78.1983 121.5 77.0351 121.097 75.8925 120.618C75.4522 120.439 75.012 120.244 74.5764 120.036C71.9355 118.795 69.431 117.162 67.1201 115.174C62.2355 110.993 58.3188 105.354 55.7474 98.7991C53.1761 92.2445 52.0367 84.9954 52.439 77.7501C52.8412 70.5048 54.7717 63.5076 58.0443 57.4324C61.3169 51.3573 65.8214 46.409 71.1239 43.0643C76.4263 39.7195 82.348 38.0911 88.3185 38.3358C94.2889 38.5805 100.107 40.6901 105.212 44.4614C110.317 48.2327 114.537 53.5386 117.466 59.8679C120.394 66.1972 121.933 73.3366 121.933 80.5984V80.5984Z" fill="#F2F2F2"/>
<path d="M226.047 49.1645H165.923C165.421 49.1636 164.94 48.9207 164.585 48.4891C164.231 48.0575 164.032 47.4725 164.032 46.8625C164.032 46.2526 164.231 45.6676 164.585 45.236C164.94 44.8044 165.421 44.5615 165.923 44.5606H226.047C226.549 44.5606 227.031 44.8031 227.386 45.2348C227.741 45.6665 227.94 46.252 227.94 46.8625C227.94 47.4731 227.741 48.0586 227.386 48.4903C227.031 48.922 226.549 49.1645 226.047 49.1645Z" fill="#3D228A"/>
<path d="M226.047 80.2406H165.923C165.421 80.2397 164.94 79.9968 164.585 79.5652C164.231 79.1336 164.032 78.5486 164.032 77.9387C164.032 77.3288 164.231 76.7438 164.585 76.3122C164.94 75.8806 165.421 75.6376 165.923 75.6367H226.047C226.549 75.6376 227.03 75.8806 227.384 76.3122C227.739 76.7438 227.938 77.3288 227.938 77.9387C227.938 78.5486 227.739 79.1336 227.384 79.5652C227.03 79.9968 226.549 80.2397 226.047 80.2406Z" fill="#E6E6E6"/>
<path d="M226.047 111.317H165.923C165.421 111.316 164.94 111.073 164.585 110.641C164.231 110.21 164.032 109.625 164.032 109.015C164.032 108.405 164.231 107.82 164.585 107.388C164.94 106.957 165.421 106.714 165.923 106.713H226.047C226.549 106.713 227.031 106.955 227.386 107.387C227.741 107.819 227.94 108.404 227.94 109.015C227.94 109.625 227.741 110.211 227.386 110.643C227.031 111.074 226.549 111.317 226.047 111.317Z" fill="#E6E6E6"/>
<path d="M75.7331 179.99C68.9455 169.015 65.0224 156.743 64.8939 142.751C64.6752 141.997 64.7115 141.169 64.9948 140.447C65.2781 139.726 65.7853 139.17 66.4051 138.903L89.5407 128.952C90.161 128.686 90.8427 128.73 91.4363 129.074C92.0298 129.419 92.4868 130.035 92.7069 130.789L103.546 168.028C103.765 168.782 103.728 169.61 103.445 170.332C103.162 171.053 102.655 171.609 102.035 171.876L78.8992 181.827C78.279 182.093 77.5973 182.049 77.0037 181.704C76.4101 181.36 75.9532 180.744 75.7331 179.99Z" fill="#E6E6E6"/>
<path d="M74.2338 167.979C70.1515 162.962 68.4041 154.013 67.2654 144.039C67.0606 143.333 67.0946 142.556 67.3599 141.881C67.6252 141.205 68.1002 140.685 68.6807 140.434L88.5638 131.882C89.1448 131.633 89.7832 131.675 90.3391 131.997C90.895 132.32 91.323 132.897 91.5291 133.603L101.175 166.74C101.379 167.446 101.345 168.222 101.08 168.898C100.815 169.574 100.34 170.094 99.7592 170.345L87.442 175.642C84.8544 176.751 82.0105 176.567 79.5344 175.131C77.0582 173.694 75.152 171.122 74.2338 167.979Z" fill="white"/>
<path d="M91.7953 151.454L76.3068 158.174C76.1848 158.227 76.0554 158.251 75.926 158.243C75.7966 158.235 75.6697 158.196 75.5526 158.129C75.4355 158.061 75.3305 157.966 75.2435 157.85C75.1566 157.733 75.0894 157.596 75.0458 157.448C75.0023 157.3 74.9832 157.142 74.9896 156.985C74.9961 156.828 75.028 156.673 75.0835 156.531C75.139 156.389 75.217 156.261 75.313 156.155C75.4091 156.05 75.5214 155.968 75.6434 155.915L91.1319 149.195C91.3783 149.088 91.6496 149.104 91.8861 149.24C92.1226 149.377 92.3049 149.621 92.3929 149.921C92.4809 150.221 92.4673 150.55 92.3553 150.838C92.2432 151.125 92.0418 151.347 91.7953 151.454H91.7953Z" fill="#3D228A"/>
<path d="M77.8951 150.501L74.4876 151.979C74.3655 152.032 74.236 152.056 74.1065 152.048C73.977 152.04 73.85 152.002 73.7328 151.934C73.6156 151.867 73.5105 151.772 73.4235 151.655C73.3365 151.538 73.2692 151.402 73.2256 151.253C73.182 151.105 73.163 150.947 73.1695 150.79C73.1759 150.633 73.2079 150.478 73.2635 150.336C73.3191 150.193 73.3972 150.066 73.4934 149.96C73.5896 149.854 73.702 149.773 73.8242 149.72L77.2316 148.241C77.3537 148.188 77.4832 148.165 77.6127 148.173C77.7422 148.18 77.8692 148.219 77.9864 148.287C78.1036 148.354 78.2087 148.449 78.2958 148.566C78.3828 148.682 78.45 148.819 78.4936 148.968C78.5372 149.116 78.5563 149.273 78.5498 149.431C78.5433 149.588 78.5114 149.743 78.4558 149.885C78.4002 150.027 78.322 150.155 78.2258 150.261C78.1296 150.366 78.0172 150.448 77.8951 150.501Z" fill="#3D228A"/>
<path d="M94.7118 161.386L79.2234 168.107C78.977 168.214 78.7059 168.197 78.4696 168.061C78.2333 167.924 78.0512 167.68 77.9633 167.38C77.8754 167.081 77.8889 166.751 78.0007 166.464C78.1126 166.176 78.3137 165.955 78.56 165.848L94.0484 159.127C94.2948 159.021 94.5659 159.037 94.8022 159.174C95.0384 159.31 95.2205 159.555 95.3085 159.854C95.3964 160.153 95.3829 160.483 95.271 160.77C95.1592 161.058 94.958 161.279 94.7118 161.386Z" fill="#3D228A"/>
<path d="M93.2535 156.42L77.7651 163.141C77.5186 163.248 77.2473 163.231 77.0108 163.095C76.7743 162.959 76.5921 162.714 76.5041 162.414C76.4161 162.115 76.4296 161.785 76.5417 161.497C76.6538 161.21 76.8552 160.988 77.1017 160.881L92.5901 154.161C92.7122 154.108 92.8417 154.084 92.9712 154.092C93.1007 154.1 93.2277 154.139 93.3449 154.206C93.4621 154.273 93.5672 154.368 93.6542 154.485C93.7413 154.602 93.8085 154.738 93.8521 154.887C93.8957 155.035 93.9148 155.193 93.9083 155.35C93.9018 155.508 93.8698 155.662 93.8142 155.804C93.7586 155.947 93.6805 156.074 93.5843 156.18C93.4881 156.286 93.3757 156.367 93.2535 156.42Z" fill="#3D228A"/>
<path d="M79.1892 61.4671C79.6936 66.4138 82.5134 70.4925 86.6139 70.4925C88.5831 70.4925 90.4716 69.5416 91.864 67.849C93.2564 66.1564 94.0386 63.8608 94.0386 61.4671C94.0386 56.4825 90.6969 52.9025 86.6139 52.4417C82.2817 51.9527 78.5417 55.1161 79.1892 61.4671Z" fill="#2F2E41"/>
<path d="M93.0777 122.269C88.5313 123.219 83.8753 123.069 79.377 121.826C81.5121 120.393 87.9884 121.274 93.0777 122.269Z" fill="#2F2E41"/>
<path d="M64.1798 138.145L67.7463 127.667L70.5563 129.565L68.8593 140.223C69.0293 140.898 69.0409 141.618 68.8929 142.3C68.745 142.983 68.4432 143.602 68.0217 144.088C67.6001 144.574 67.0754 144.907 66.5066 145.05C65.9378 145.194 65.3474 145.141 64.8018 144.899C64.2562 144.656 63.777 144.234 63.4181 143.679C63.0592 143.123 62.8349 142.457 62.7702 141.756C62.7056 141.054 62.8033 140.344 63.0523 139.706C63.3013 139.068 63.6918 138.527 64.1798 138.145Z" fill="#FFB6B6"/>
<path d="M101.074 109.793V109.798C100.946 113.447 100.771 116.917 100.624 119.587C96.3569 121.767 91.7744 122.889 87.1458 122.885C84.5316 122.888 81.9255 122.533 79.3769 121.826C78.1983 121.5 77.0351 121.097 75.8926 120.618C76.0516 120.493 76.2236 120.394 76.4039 120.324C78.1082 119.622 76.4228 118.983 76.437 118.316C76.4891 115.876 77.043 112.946 77.7578 110.138L74.5764 120.036L72.9195 125.181C72.9195 125.181 72.9763 129.624 71.9253 128.266C70.8696 126.908 70.9453 131.304 70.9453 131.304C70.6172 131.589 70.3348 131.944 70.1121 132.352C70.0184 132.535 69.9831 132.754 70.0127 132.967V132.973C70.0603 133.141 70.1539 133.283 70.2778 133.376C70.9927 133.963 69.9653 135.517 69.5109 136.133C69.3878 136.3 69.3073 136.397 69.3073 136.397L64.9376 136.018V135.914C64.9566 135.287 65.0749 131.983 65.7519 131.195C66.4952 130.326 66.1307 128.951 66.1307 128.951C66.1307 128.951 68.0717 126.862 66.7698 125.164C66.249 124.479 66.481 120.422 67.1201 115.174C68.5167 103.595 71.8638 86.2151 73.3124 86.4626C73.6109 84.6998 74.3043 83.0715 75.3159 81.7574C76.3276 80.4433 77.6183 79.4946 79.0455 79.0158L83.7655 77.439L84.6082 73.3933H91.255L92.4101 76.052L97.2532 78.7108L97.3148 78.7453L97.4662 78.8259L97.5231 79.0446C97.5231 79.0446 97.5183 79.0503 97.5231 79.0503L100.217 89.3342C101.429 91.0262 101.381 100.913 101.074 109.793Z" fill="#3D228A"/>
<path d="M112.392 130.515L107.891 120.584L110.866 119.103L116.651 127.373C117.191 127.633 117.66 128.072 118.006 128.639C118.352 129.206 118.561 129.879 118.61 130.583C118.659 131.287 118.545 131.993 118.281 132.622C118.018 133.251 117.615 133.779 117.119 134.145C116.622 134.512 116.051 134.702 115.471 134.696C114.89 134.69 114.322 134.487 113.831 134.109C113.34 133.732 112.945 133.196 112.691 132.561C112.437 131.926 112.333 131.218 112.392 130.515Z" fill="#FFB6B6"/>
<path d="M97.254 78.6315C98.0546 80.3802 105.377 84.8775 104.108 89.3926C104.108 89.3926 110.986 115.552 111.881 115.382C112.775 115.211 113.648 117.913 113.648 117.913C113.648 117.913 113.458 119.677 114.016 118.944C114.574 118.211 114.441 120.132 114.441 120.132C114.441 120.132 114.173 121.828 114.882 121.367C115.59 120.906 114.659 124.151 114.659 124.151L110.402 126.587L109.593 125.124C109.593 125.124 107.864 124.724 108.677 124.407C109.491 124.09 107.913 123.023 107.913 123.023C107.913 123.023 106.261 121.658 106.492 119.399C106.722 117.14 102.207 112.699 102.207 112.699C99.1031 105.25 97.4051 97.6022 97.4111 89.7132L97.254 78.6315Z" fill="#3D228A"/>
<path d="M87.4346 71.0284C91.0708 71.0284 94.0185 67.4452 94.0185 63.0251C94.0185 58.605 91.0708 55.0218 87.4346 55.0218C83.7984 55.0218 80.8507 58.605 80.8507 63.0251C80.8507 67.4452 83.7984 71.0284 87.4346 71.0284Z" fill="#FFB6B6"/>
<path d="M80.617 63.897C80.8254 65.6361 82.0448 68.0626 81.7592 68.0626C81.4737 68.0626 79.4433 60.8932 81.4737 60.4257C82.9464 60.0866 83.2756 60.3841 84.652 59.6585L84.4578 59.8807C85.3688 60.6861 86.6367 60.1897 87.6762 59.6655C88.7185 59.1448 89.9835 58.6484 90.8973 59.4503C91.4713 59.9536 91.714 60.8284 92.071 61.5712C92.428 62.3176 93.0876 63.0222 93.7673 62.7931C94.0321 62.6688 94.2577 62.4455 94.4116 62.1555C94.5656 61.8654 94.6399 61.5236 94.624 61.179C94.6211 60.4917 93.8848 59.8378 94.1328 59.2211C94.8676 57.3937 94.2068 56.1481 92.605 55.2882C92.0225 55.1806 91.4399 55.0706 90.8573 54.9584C91.1626 54.4444 91.5327 53.9922 91.9539 53.6185C91.776 53.0638 91.4682 52.5847 91.0687 52.2404C90.5751 51.9614 90.025 51.8649 89.4866 51.9627C88.2816 52.039 87.0774 52.1154 85.8742 52.1917C84.9781 52.1723 84.0888 52.3829 83.2642 52.8097C82.2704 53.431 81.6193 54.6425 81.1453 55.8748C80.083 58.6449 80.2515 60.8735 80.617 63.897Z" fill="#2F2E41"/>
<path d="M245.314 58.6477H146.301C146.192 58.6477 146.087 58.595 146.01 58.5013C145.933 58.4076 145.89 58.2805 145.89 58.1479C145.89 58.0154 145.933 57.8883 146.01 57.7946C146.087 57.7009 146.192 57.6482 146.301 57.6482H245.314C245.423 57.6482 245.528 57.7009 245.605 57.7946C245.682 57.8883 245.726 58.0154 245.726 58.1479C245.726 58.2805 245.682 58.4076 245.605 58.5013C245.528 58.595 245.423 58.6477 245.314 58.6477Z" fill="#E6E6E6"/>
<path d="M245.314 89.6309H146.301C146.192 89.6309 146.087 89.5783 146.01 89.4846C145.933 89.3909 145.89 89.2637 145.89 89.1312C145.89 88.9987 145.933 88.8716 146.01 88.7778C146.087 88.6841 146.192 88.6315 146.301 88.6315H245.314C245.423 88.6315 245.528 88.6841 245.605 88.7778C245.682 88.8716 245.726 88.9987 245.726 89.1312C245.726 89.2637 245.682 89.3909 245.605 89.4846C245.528 89.5783 245.423 89.6309 245.314 89.6309Z" fill="#E6E6E6"/>
<path d="M245.314 120.614H146.301C146.192 120.614 146.087 120.561 146.01 120.468C145.933 120.374 145.89 120.247 145.89 120.114C145.89 119.982 145.933 119.855 146.01 119.761C146.087 119.667 146.192 119.615 146.301 119.615H245.314C245.423 119.615 245.528 119.667 245.605 119.761C245.682 119.855 245.726 119.982 245.726 120.114C245.726 120.247 245.682 120.374 245.605 120.468C245.528 120.561 245.423 120.614 245.314 120.614Z" fill="#E6E6E6"/>
<path d="M260.052 118.633C256.427 118.633 252.921 117.059 250.167 114.196C249.248 113.239 248.268 111.577 247.256 109.255C246.61 107.759 246.249 106.106 246.198 104.418C246.147 102.73 246.408 101.049 246.961 99.5001C246.428 100.16 245.837 100.749 245.2 101.256L244.878 101.517L244.859 101.047C244.847 100.742 244.841 100.438 244.841 100.143C244.841 98.4059 245.922 96.6432 245.423 95.0375C243.322 88.27 236.659 81.5444 246.317 71.0707C247.21 70.1018 246.017 68.1647 246.017 66.6988C246.017 52.3326 262.72 27.4787 267.454 40.6449C273.292 56.8822 283.35 55.1455 287.806 58.4993L287.871 58.7365L287.681 58.8302C286.705 59.3284 285.678 59.6605 284.628 59.8171C285.748 60.0946 286.89 60.2109 288.032 60.1637L288.209 60.1562L288.252 60.3653C288.677 62.4369 288.891 64.5639 288.891 66.6988L288.89 66.9296C288.886 68.5511 289.163 70.1555 289.704 71.6381C290.244 73.1208 291.036 74.4483 292.026 75.5342C293.591 77.2686 294.842 79.3804 295.698 81.7348C296.554 84.0892 296.998 86.6347 297 89.209C297 92.2546 295.297 96.2524 293.869 99.0699C293.507 99.7876 293.015 100.396 292.432 100.85C291.849 101.305 291.189 101.592 290.501 101.692C289.85 101.792 289.188 101.716 288.564 101.471C287.939 101.226 287.366 100.816 286.886 100.272C287.562 101.925 288.443 103.441 289.498 104.768L289.693 105.012L289.451 105.184C287.126 106.832 284.482 107.7 281.789 107.699L281.632 107.699C279.658 107.674 277.7 108.128 275.872 109.035C274.044 109.942 272.384 111.283 270.988 112.98C269.566 114.76 267.867 116.176 265.989 117.147C264.111 118.118 262.092 118.623 260.052 118.633Z" fill="#E6E6E6"/>
<path d="M254.819 147.914C254.753 147.914 254.689 147.885 254.64 147.833C254.59 147.78 254.558 147.708 254.548 147.629C253.833 139.875 253.79 132.051 254.421 124.286C255.365 112.037 258.397 94.3935 267.48 79.9034C267.502 79.8686 267.529 79.8395 267.56 79.8175C267.591 79.7955 267.625 79.7812 267.661 79.7754C267.696 79.7695 267.732 79.7723 267.767 79.7834C267.802 79.7946 267.835 79.814 267.863 79.8404C267.892 79.8669 267.916 79.9 267.934 79.9377C267.952 79.9754 267.964 80.0171 267.968 80.0604C267.973 80.1037 267.971 80.1477 267.962 80.1899C267.953 80.2321 267.937 80.2717 267.915 80.3065C258.91 94.6715 255.903 112.185 254.965 124.348C254.338 132.061 254.38 139.833 255.09 147.535C255.095 147.582 255.093 147.63 255.081 147.676C255.07 147.722 255.051 147.764 255.026 147.8C255 147.836 254.968 147.865 254.932 147.884C254.897 147.904 254.858 147.914 254.819 147.914Z" fill="#3F3D56"/>
<path d="M262.231 100.342C262.173 100.342 262.117 100.32 262.07 100.279C262.023 100.238 261.988 100.18 261.971 100.113C261.953 100.046 261.953 99.974 261.971 99.9072C261.988 99.8404 262.023 99.7821 262.07 99.7409C264.658 97.6113 267.454 95.8813 270.393 94.5904C274.985 92.5468 281.968 90.6941 289.157 93.4753C289.191 93.4885 289.223 93.5099 289.25 93.538C289.278 93.5662 289.3 93.6006 289.317 93.6394C289.333 93.6782 289.343 93.7205 289.346 93.764C289.349 93.8075 289.345 93.8513 289.335 93.8929C289.324 93.9346 289.306 93.9731 289.283 94.0065C289.26 94.0399 289.231 94.0674 289.2 94.0875C289.168 94.1075 289.133 94.1197 289.097 94.1234C289.061 94.1271 289.025 94.1222 288.991 94.109C281.949 91.3849 275.093 93.2069 270.581 95.215C267.689 96.4837 264.938 98.1847 262.392 100.279C262.345 100.32 262.289 100.342 262.231 100.342Z" fill="#3F3D56"/>
<path d="M249.711 62.4377C249.707 62.3676 249.721 62.2978 249.751 62.2381C249.782 62.1784 249.827 62.132 249.881 62.1055C249.934 62.079 249.993 62.0738 250.049 62.0906C250.105 62.1074 250.156 62.1454 250.193 62.1991C252.127 65.1836 253.748 68.4488 255.018 71.9196C257.026 77.34 259.049 85.6729 257.285 94.5892C257.276 94.6317 257.261 94.6719 257.24 94.7073C257.219 94.7428 257.192 94.7728 257.162 94.7957C257.131 94.8186 257.097 94.8339 257.061 94.8407C257.026 94.8476 256.99 94.8459 256.955 94.8356C256.92 94.8254 256.887 94.8069 256.857 94.7811C256.828 94.7554 256.804 94.7229 256.785 94.6856C256.766 94.6482 256.754 94.6067 256.748 94.5635C256.743 94.5203 256.744 94.4762 256.753 94.4337C258.481 85.7001 256.492 77.5184 254.519 72.1926C253.27 68.7776 251.676 65.5647 249.775 62.6278C249.737 62.5743 249.715 62.5077 249.711 62.4377Z" fill="#3F3D56"/>
<path d="M26.0121 111.981C24.6162 110.284 22.9557 108.943 21.128 108.036C19.3003 107.129 17.3421 106.675 15.3682 106.7L15.2105 106.7C12.5184 106.701 9.87425 105.833 7.54862 104.185L7.30662 104.013L7.50153 103.769C8.55677 102.442 9.4379 100.926 10.114 99.2731C9.63383 99.8174 9.06108 100.227 8.43633 100.472C7.81158 100.717 7.1501 100.793 6.49872 100.693C5.81102 100.593 5.15082 100.306 4.56763 99.8515C3.98443 99.3974 3.49339 98.7887 3.13134 98.071C1.70282 95.2535 0 91.2557 0 88.2101C0.00222314 85.6358 0.445632 83.0903 1.30197 80.7358C2.15831 78.3814 3.40879 76.2697 4.9737 74.5353C5.96442 73.4493 6.75576 72.1218 7.29611 70.6392C7.83646 69.1566 8.11369 67.5522 8.10974 65.9306L8.10895 65.6998C8.10868 63.5649 8.3233 61.438 8.74803 59.3664L8.79115 59.1572L8.96821 59.1647C10.11 59.2119 11.2523 59.0956 12.3717 58.8181C11.3218 58.6616 10.2946 58.3295 9.31935 57.8312L9.12888 57.7376L9.19352 57.5003C13.6495 54.1465 23.708 55.8833 29.5462 39.646C34.2802 26.4797 50.9834 51.3337 50.9834 65.6998C50.9834 67.1657 49.79 69.1029 50.6834 70.0717C60.3412 80.5455 53.6774 87.271 51.5765 94.0386C51.078 95.6442 52.1588 97.407 52.1588 99.1441C52.1588 99.4389 52.1527 99.7431 52.1404 100.048L52.1218 100.518L51.7998 100.257C51.1628 99.7501 50.5723 99.1613 50.0384 98.5011C50.5923 100.05 50.8533 101.731 50.8023 103.419C50.7513 105.107 50.3895 106.76 49.7436 108.256C48.7315 110.578 47.7523 112.24 46.8334 113.197C43.8895 116.259 40.0944 117.839 36.2241 117.613C32.3539 117.387 28.7009 115.372 26.0121 111.981H26.0121Z" fill="#E6E6E6"/>
<path d="M42.1813 146.915C42.2471 146.915 42.3107 146.886 42.3603 146.834C42.41 146.781 42.4425 146.709 42.4518 146.63C43.1671 138.876 43.2098 131.052 42.5794 123.287C41.6352 111.038 38.6032 93.3946 29.5203 78.9045C29.4985 78.8697 29.4714 78.8405 29.4403 78.8186C29.4093 78.7966 29.3749 78.7823 29.3393 78.7765C29.3037 78.7706 29.2675 78.7734 29.2328 78.7845C29.1981 78.7957 29.1655 78.8151 29.1369 78.8415C29.1083 78.868 29.0843 78.901 29.0663 78.9388C29.0482 78.9765 29.0364 79.0182 29.0316 79.0615C29.0268 79.1048 29.0291 79.1488 29.0383 79.191C29.0474 79.2332 29.0634 79.2728 29.0851 79.3076C38.0895 93.6725 41.0971 111.186 42.0346 123.349C42.6617 131.062 42.62 138.834 41.9101 146.536C41.9046 146.583 41.9075 146.631 41.9187 146.677C41.9298 146.723 41.9488 146.765 41.9745 146.801C42.0002 146.837 42.032 146.866 42.0677 146.885C42.1033 146.905 42.1421 146.915 42.1813 146.915Z" fill="#3F3D56"/>
<path d="M34.7691 99.3434C34.8269 99.3435 34.8832 99.3213 34.93 99.28C34.9768 99.2388 35.0116 99.1806 35.0295 99.1138C35.0473 99.047 35.0474 98.975 35.0295 98.9082C35.0117 98.8414 34.9769 98.7832 34.9302 98.7419C32.3421 96.6124 29.5462 94.8823 26.6069 93.5915C22.0149 91.5478 15.032 89.6951 7.84316 92.4763C7.80893 92.4896 7.77718 92.5109 7.74973 92.539C7.72228 92.5672 7.69966 92.6016 7.68316 92.6404C7.66666 92.6792 7.6566 92.7216 7.65357 92.7651C7.65053 92.8086 7.65458 92.8524 7.66547 92.894C7.67636 92.9356 7.69389 92.9742 7.71705 93.0076C7.74021 93.0409 7.76856 93.0684 7.80046 93.0885C7.83237 93.1085 7.86721 93.1208 7.903 93.1245C7.93879 93.1281 7.97482 93.1232 8.00905 93.11C15.0506 90.386 21.9069 92.208 26.4188 94.216C29.3109 95.4847 32.0619 97.1857 34.6085 99.2799C34.6552 99.3212 34.7114 99.3434 34.7691 99.3434Z" fill="#3F3D56"/>
<path d="M47.2889 61.4387C47.2931 61.3687 47.2789 61.2988 47.2485 61.2391C47.218 61.1795 47.1727 61.133 47.1192 61.1066C47.0657 61.0801 47.0067 61.0749 46.9506 61.0917C46.8945 61.1085 46.8442 61.1465 46.8069 61.2002C44.8733 64.1847 43.2524 67.4499 41.9816 70.9206C39.9741 76.3411 37.951 84.674 39.7153 93.5902C39.7236 93.6328 39.7388 93.6729 39.7599 93.7084C39.781 93.7438 39.8076 93.7738 39.8383 93.7967C39.8689 93.8196 39.903 93.8349 39.9386 93.8418C39.9741 93.8486 40.0104 93.8469 40.0454 93.8367C40.0804 93.8265 40.1134 93.8079 40.1425 93.7822C40.1715 93.7564 40.1962 93.724 40.2149 93.6866C40.2337 93.6493 40.2462 93.6078 40.2517 93.5646C40.2572 93.5214 40.2557 93.4772 40.2472 93.4347C38.5192 84.7012 40.5079 76.5195 42.4805 71.1937C43.7297 67.7786 45.3235 64.5657 47.2252 61.6289C47.2624 61.5753 47.2847 61.5087 47.2889 61.4387Z" fill="#3F3D56"/>
</g>
<defs>
<clipPath id="clip0_214_2">
<rect width="297" height="182" fill="white"/>
</clipPath>
</defs>
</svg>
